rotated_Sprint_08100001_forces_filt10Hz.mot
version=1
nRows=57
nColumns=19
inDegrees=yes
endheader
time	R_ground_force_vx	R_ground_force_vy	R_ground_force_vz	R_ground_force_px	R_ground_force_py	R_ground_force_pz	R_ground_torque_x	R_ground_torque_y	R_ground_torque_z	L_ground_force_vx	L_ground_force_vy	L_ground_force_vz	L_ground_force_px	L_ground_force_py	L_ground_force_pz	L_ground_torque_x	L_ground_torque_y	L_ground_torque_z	
1.463500	  0.000000	  0.000000	  0.000000	  0.281455	  0.000000	 -0.648781	  0.000000	  0.000000	  0.000000	-137.160459	411.018812	 47.164654	  1.020789	  0.000000	 -0.401799	  0.000000	  0.093025	  0.000000
1.464000	  0.000000	  0.000000	  0.000000	  0.283831	  0.000000	 -0.649394	  0.000000	  0.000000	  0.000000	-141.104821	429.574730	 48.461586	  1.017718	  0.000000	 -0.400814	  0.000000	  0.013549	  0.000000
1.464500	  0.000000	  0.000000	  0.000000	  0.286208	  0.000000	 -0.650006	  0.000000	  0.000000	  0.000000	-145.090061	448.543901	 49.768615	  1.014771	  0.000000	 -0.399870	  0.000000	 -0.070787	  0.000000
1.465000	  0.000000	  0.000000	  0.000000	  0.288585	  0.000000	 -0.650619	  0.000000	  0.000000	  0.000000	-149.113530	467.925896	 51.084952	  1.011938	  0.000000	 -0.398964	  0.000000	 -0.159865	  0.000000
1.465500	  0.000000	  0.000000	  0.000000	  0.291010	  0.000000	 -0.650987	  0.000000	  0.000000	  0.000000	-153.172413	487.719845	 52.409787	  1.009209	  0.000000	 -0.398093	  0.000000	 -0.253558	  0.000000
1.466000	  0.000000	  0.000000	  0.000000	  0.293435	  0.000000	 -0.651356	  0.000000	  0.000000	  0.000000	-157.263721	507.924424	 53.742271	  1.006576	  0.000000	 -0.397254	  0.000000	 -0.351733	  0.000000
1.466500	  0.000000	  0.000000	  0.000000	  0.295860	  0.000000	 -0.651724	  0.000000	  0.000000	  0.000000	-161.384298	528.537832	 55.081518	  1.004031	  0.000000	 -0.396444	  0.000000	 -0.454263	  0.000000
1.467000	  0.000000	  0.000000	  0.000000	  0.298285	  0.000000	 -0.652093	  0.000000	  0.000000	  0.000000	-165.530814	549.557775	 56.426585	  1.001566	  0.000000	 -0.395661	  0.000000	 -0.561023	  0.000000
1.467500	  0.000000	  0.000000	  0.000000	  0.300710	  0.000000	 -0.652461	  0.000000	  0.000000	  0.000000	-169.699765	570.981442	 57.776471	  0.999176	  0.000000	 -0.394902	  0.000000	 -0.671901	  0.000000
1.468000	  0.000000	  0.000000	  0.000000	  0.303135	  0.000000	 -0.652829	  0.000000	  0.000000	  0.000000	-173.887471	592.805486	 59.130106	  0.996854	  0.000000	 -0.394167	  0.000000	 -0.786791	  0.000000
1.468500	  0.000000	  0.000000	  0.000000	  0.305560	  0.000000	 -0.653198	  0.000000	  0.000000	  0.000000	-178.090078	615.026007	 60.486343	  0.994596	  0.000000	 -0.393453	  0.000000	 -0.905603	  0.000000
1.469000	  0.000000	  0.000000	  0.000000	  0.307985	  0.000000	 -0.653566	  0.000000	  0.000000	  0.000000	-182.303557	637.638521	 61.843953	  0.992395	  0.000000	 -0.392758	  0.000000	 -1.028260	  0.000000
1.469500	  0.000000	  0.000000	  0.000000	  0.310410	  0.000000	 -0.653935	  0.000000	  0.000000	  0.000000	-186.523711	660.637951	 63.201620	  0.990248	  0.000000	 -0.392081	  0.000000	 -1.154709	  0.000000
1.470000	  0.000000	  0.000000	  0.000000	  0.312835	  0.000000	 -0.654303	  0.000000	  0.000000	  0.000000	-190.746175	684.018594	 64.557934	  0.988151	  0.000000	 -0.391421	  0.000000	 -1.284919	  0.000000
1.470500	  0.000000	  0.000000	  0.000000	  0.315285	  0.000000	 -0.654400	  0.000000	  0.000000	  0.000000	-194.966429	707.774105	 65.911386	  0.986098	  0.000000	 -0.390776	  0.000000	 -1.418895	  0.000000
1.471000	  0.000000	  0.000000	  0.000000	  0.317735	  0.000000	 -0.654496	  0.000000	  0.000000	  0.000000	-199.179803	731.897471	 67.260359	  0.984088	  0.000000	 -0.390145	  0.000000	 -1.556678	  0.000000
1.471500	  0.000000	  0.000000	  0.000000	  0.320185	  0.000000	 -0.654593	  0.000000	  0.000000	  0.000000	-203.381490	756.380992	 68.603120	  0.982117	  0.000000	 -0.389528	  0.000000	 -1.698355	  0.000000
1.472000	  0.000000	  0.000000	  0.000000	  0.322635	  0.000000	 -0.654690	  0.000000	  0.000000	  0.000000	-207.566563	781.216251	 69.937808	  0.980181	  0.000000	 -0.388922	  0.000000	 -1.844061	  0.000000
1.472500	  0.000000	  0.000000	  0.000000	  0.325085	  0.000000	 -0.654786	  0.000000	  0.000000	  0.000000	-211.729989	806.394096	 71.262428	  0.978277	  0.000000	 -0.388328	  0.000000	 -1.993982	  0.000000
1.473000	  0.000000	  0.000000	  0.000000	  0.327535	  0.000000	 -0.654883	  0.000000	  0.000000	  0.000000	-215.866647	831.904613	 72.574840	  0.976402	  0.000000	 -0.387745	  0.000000	 -2.148358	  0.000000
1.473500	  0.000000	  0.000000	  0.000000	  0.329985	  0.000000	 -0.654980	  0.000000	  0.000000	  0.000000	-219.971344	857.737128	 73.872742	  0.974555	  0.000000	 -0.387171	  0.000000	 -2.307481	  0.000000
1.474000	  0.000000	  0.000000	  0.000000	  0.332435	  0.000000	 -0.655077	  0.000000	  0.000000	  0.000000	-224.038833	883.880282	 75.153660	  0.972731	  0.000000	 -0.386606	  0.000000	 -2.471690	  0.000000
1.474500	  0.000000	  0.000000	  0.000000	  0.334885	  0.000000	 -0.655173	  0.000000	  0.000000	  0.000000	-228.063828	910.322173	 76.414930	  0.970930	  0.000000	 -0.386050	  0.000000	 -2.641373	  0.000000
1.475000	  0.000000	  0.000000	  0.000000	  0.337335	  0.000000	 -0.655270	  0.000000	  0.000000	  0.000000	-232.041021	937.050488	 77.653683	  0.969149	  0.000000	 -0.385501	  0.000000	 -2.816955	  0.000000
1.475500	  0.000000	  0.000000	  0.000000	  0.339792	  0.000000	 -0.655095	  0.000000	  0.000000	  0.000000	-235.965096	964.052594	 78.866829	  0.967385	  0.000000	 -0.384960	  0.000000	 -2.998902	  0.000000
1.476000	  0.000000	  0.000000	  0.000000	  0.342249	  0.000000	 -0.654921	  0.000000	  0.000000	  0.000000	-239.830737	991.315631	 80.051048	  0.965637	  0.000000	 -0.384427	  0.000000	 -3.187714	  0.000000
1.476500	  0.000000	  0.000000	  0.000000	  0.344705	  0.000000	 -0.654746	  0.000000	  0.000000	  0.000000	-243.632641	1018.826592	 81.202782	  0.963903	  0.000000	 -0.383900	  0.000000	 -3.383920	  0.000000
1.477000	  0.000000	  0.000000	  0.000000	  0.347162	  0.000000	 -0.654571	  0.000000	  0.000000	  0.000000	-247.365527	1046.572397	 82.318243	  0.962182	  0.000000	 -0.383380	  0.000000	 -3.588074	  0.000000
1.477500	  0.000000	  0.000000	  0.000000	  0.349619	  0.000000	 -0.654397	  0.000000	  0.000000	  0.000000	-251.024145	1074.539949	 83.393423	  0.960471	  0.000000	 -0.382867	  0.000000	 -3.800748	  0.000000
1.478000	  0.000000	  0.000000	  0.000000	  0.352076	  0.000000	 -0.654222	  0.000000	  0.000000	  0.000000	-254.603303	1102.716161	 84.424113	  0.958770	  0.000000	 -0.382360	  0.000000	 -4.022522	  0.000000
1.478500	  0.000000	  0.000000	  0.000000	  0.354533	  0.000000	 -0.654047	  0.000000	  0.000000	  0.000000	-258.097888	1131.087980	 85.405945	  0.957078	  0.000000	 -0.381859	  0.000000	 -4.253976	  0.000000
1.479000	  0.000000	  0.000000	  0.000000	  0.356989	  0.000000	 -0.653872	  0.000000	  0.000000	  0.000000	-261.502908	1159.642387	 86.334421	  0.955392	  0.000000	 -0.381365	  0.000000	 -4.495680	  0.000000
1.479500	  0.000000	  0.000000	  0.000000	  0.359446	  0.000000	 -0.653698	  0.000000	  0.000000	  0.000000	-264.813534	1188.366403	 87.204966	  0.953713	  0.000000	 -0.380877	  0.000000	 -4.748185	  0.000000
1.480000	  0.000000	  0.000000	  0.000000	  0.361903	  0.000000	 -0.653523	  0.000000	  0.000000	  0.000000	-268.025155	1217.247096	 88.012967	  0.952038	  0.000000	 -0.380396	  0.000000	 -5.012014	  0.000000
1.480500	  0.000000	  0.000000	  0.000000	  0.364345	  0.000000	 -0.653086	  0.000000	  0.000000	  0.000000	-271.133419	1246.271601	 88.753817	  0.950368	  0.000000	 -0.379921	  0.000000	 -5.287657	  0.000000
1.481000	  0.000000	  0.000000	  0.000000	  0.366787	  0.000000	 -0.652649	  0.000000	  0.000000	  0.000000	-274.134288	1275.427135	 89.422954	  0.948701	  0.000000	 -0.379453	  0.000000	 -5.575553	  0.000000
1.481500	  0.000000	  0.000000	  0.000000	  0.369230	  0.000000	 -0.652212	  0.000000	  0.000000	  0.000000	-277.024075	1304.701027	 90.015897	  0.947036	  0.000000	 -0.378991	  0.000000	 -5.876086	  0.000000
1.482000	  0.000000	  0.000000	  0.000000	  0.371672	  0.000000	 -0.651775	  0.000000	  0.000000	  0.000000	-279.799484	1334.080735	 90.528270	  0.945374	  0.000000	 -0.378535	  0.000000	 -6.189561	  0.000000
1.482500	  0.000000	  0.000000	  0.000000	  0.374114	  0.000000	 -0.651339	  0.000000	  0.000000	  0.000000	-282.457635	1363.553863	 90.955841	  0.943711	  0.000000	 -0.378086	  0.000000	 -6.516188	  0.000000
1.483000	  0.000000	  0.000000	  0.000000	  0.376556	  0.000000	 -0.650902	  0.000000	  0.000000	  0.000000	-284.996083	1393.108159	 91.294548	  0.942049	  0.000000	 -0.377643	  0.000000	 -6.856061	  0.000000
1.483500	  0.000000	  0.000000	  0.000000	  0.378998	  0.000000	 -0.650465	  0.000000	  0.000000	  0.000000	-287.412835	1422.731490	 91.540535	  0.940386	  0.000000	 -0.377206	  0.000000	 -7.209140	  0.000000
1.484000	  0.000000	  0.000000	  0.000000	  0.381441	  0.000000	 -0.650028	  0.000000	  0.000000	  0.000000	-289.706343	1452.411805	 91.690181	  0.938721	  0.000000	 -0.376776	  0.000000	 -7.575228	  0.000000
1.484500	  0.000000	  0.000000	  0.000000	  0.383883	  0.000000	 -0.649591	  0.000000	  0.000000	  0.000000	-291.875497	1482.137071	 91.740132	  0.937054	  0.000000	 -0.376351	  0.000000	 -7.953969	  0.000000
1.485000	  0.000000	  0.000000	  0.000000	  0.386325	  0.000000	 -0.649154	  0.000000	  0.000000	  0.000000	-293.919610	1511.895214	 91.687314	  0.935383	  0.000000	 -0.375933	  0.000000	 -8.344834	  0.000000
1.485500	  0.000000	  0.000000	  0.000000	  0.388731	  0.000000	 -0.648464	  0.000000	  0.000000	  0.000000	-295.838383	1541.674053	 91.528941	  0.933707	  0.000000	 -0.375520	  0.000000	 -8.747130	  0.000000
1.486000	  0.000000	  0.000000	  0.000000	  0.391137	  0.000000	 -0.647774	  0.000000	  0.000000	  0.000000	-297.631864	1571.461247	 91.262512	  0.932026	  0.000000	 -0.375112	  0.000000	 -9.160002	  0.000000
1.486500	  0.000000	  0.000000	  0.000000	  0.393544	  0.000000	 -0.647084	  0.000000	  0.000000	  0.000000	-299.300391	1601.244265	 90.885793	  0.930340	  0.000000	 -0.374710	  0.000000	 -9.582440	  0.000000
1.487000	  0.000000	  0.000000	  0.000000	  0.395950	  0.000000	 -0.646394	  0.000000	  0.000000	  0.000000	-300.844526	1631.010356	 90.396796	  0.928646	  0.000000	 -0.374313	  0.000000	-10.013291	  0.000000
1.487500	  0.000000	  0.000000	  0.000000	  0.398356	  0.000000	 -0.645704	  0.000000	  0.000000	  0.000000	-302.264973	1660.746547	 89.793753	  0.926946	  0.000000	 -0.373921	  0.000000	-10.451264	  0.000000
1.488000	  0.000000	  0.000000	  0.000000	  0.400762	  0.000000	 -0.645013	  0.000000	  0.000000	  0.000000	-303.562501	1690.439634	 89.075087	  0.925238	  0.000000	 -0.373534	  0.000000	-10.894928	  0.000000
1.488500	  0.000000	  0.000000	  0.000000	  0.403168	  0.000000	 -0.644323	  0.000000	  0.000000	  0.000000	-304.737863	1720.076177	 88.239397	  0.923522	  0.000000	 -0.373152	  0.000000	-11.342728	  0.000000
1.489000	  0.000000	  0.000000	  0.000000	  0.405575	  0.000000	 -0.643633	  0.000000	  0.000000	  0.000000	-305.791722	1749.642491	 87.285447	  0.921798	  0.000000	 -0.372774	  0.000000	-11.792980	  0.000000
1.489500	  0.000000	  0.000000	  0.000000	  0.407981	  0.000000	 -0.642943	  0.000000	  0.000000	  0.000000	-306.724594	1779.124630	 86.212171	  0.920066	  0.000000	 -0.372402	  0.000000	-12.243893	  0.000000
1.490000	  0.000000	  0.000000	  0.000000	  0.410387	  0.000000	 -0.642253	  0.000000	  0.000000	  0.000000	-307.536798	1808.508363	 85.018689	  0.918326	  0.000000	 -0.372034	  0.000000	-12.693582	  0.000000
1.490500	  0.000000	  0.000000	  0.000000	  0.412747	  0.000000	 -0.641318	  0.000000	  0.000000	  0.000000	-308.228434	1837.779149	 83.704335	  0.916579	  0.000000	 -0.371671	  0.000000	-13.140084	  0.000000
1.491000	  0.000000	  0.000000	  0.000000	  0.415107	  0.000000	 -0.640383	  0.000000	  0.000000	  0.000000	-308.799365	1866.922108	 82.268686	  0.914824	  0.000000	 -0.371312	  0.000000	-13.581388	  0.000000
1.491500	  0.000000	  0.000000	  0.000000	  0.417467	  0.000000	 -0.639449	  0.000000	  0.000000	  0.000000	-309.249220	1895.922009	 80.711602	  0.913063	  0.000000	 -0.370959	  0.000000	-14.015447	  0.000000
